<?xml version="1.0" encoding="utf-8"?>
<!-- Generator: Adobe Illustrator 22.0.1, SVG Export Plug-In . SVG Version: 6.00 Build 0)  -->
<svg version="1.1" id="Capa_1" xmlns="http://www.w3.org/2000/svg" xmlns:xlink="http://www.w3.org/1999/xlink" x="0px" y="0px"
	 viewBox="0 0 510 510" style="enable-background:new 0 0 510 510;" xml:space="preserve">
<style type="text/css">
	.st0{fill:none;stroke:#FFFFFF;stroke-width:12;stroke-miterlimit:10;}
</style>
<g>
	<g>
		<path class="st0" d="M207.2,204.9c0-23-15.6-23-15.6-23h-8.3h-56.1v49.3h60.4C198,231.2,207.2,227.9,207.2,204.9z"/>
		<path class="st0" d="M191.6,265.3h-64.3v59.1h61.4c9.2-0.3,26.3-3.2,26.3-28.7C214.9,265,191.6,265.3,191.6,265.3z"/>
		<path class="st0" d="M356.3,231.2c-34.1,0-38.9,34.1-38.9,34.1H390C390,265.3,390.5,231.2,356.3,231.2z"/>
		<path class="st0" d="M254.8,11.8c-134.6,0-243.7,109.1-243.7,243.7s109.1,243.7,243.7,243.7S498.4,390,498.4,255.5
			S389.3,11.8,254.8,11.8z M307.9,155.6h91.2v27.2h-91.2L307.9,155.6L307.9,155.6z M261.8,298.4c0,67.5-70.2,65.2-70.2,65.2h-64.3
			h-1.9H76.6v-221h48.8h1.9h64.3c35,0,62.5,19.3,62.5,58.9s-33.7,42.1-33.7,42.1C264.9,243.5,261.8,298.4,261.8,298.4z M356.8,333.3
			c36.7,0,35.4-23.8,35.4-23.8h38.9c0,63.1-75.6,58.8-75.6,58.8c-90.8,0-84.9-84.5-84.9-84.5s-0.1-84.9,84.9-84.9
			c89.5,0,76.9,95.9,76.9,95.9H317.9C317.9,335.9,356.8,333.3,356.8,333.3z"/>
	</g>
</g>
</svg>
