<?xml version="1.0" encoding="utf-8"?>
<!-- Generator: Adobe Illustrator 16.0.0, SVG Export Plug-In . SVG Version: 6.00 Build 0)  -->
<!DOCTYPE svg PUBLIC "-//W3C//DTD SVG 1.1//EN" "http://www.w3.org/Graphics/SVG/1.1/DTD/svg11.dtd">
<svg version="1.1" id="Layer_1" xmlns="http://www.w3.org/2000/svg" xmlns:xlink="http://www.w3.org/1999/xlink" x="0px" y="0px"
	 width="841.89px" height="1190.55px" viewBox="0 0 841.89 1190.55" enable-background="new 0 0 841.89 1190.55"
	 xml:space="preserve">
<g>
</g>
<g>
</g>
<g>
	<path fill="#FFFFFF" d="M315.151,379.269c1.265,1.273,6.023,8.255,14.275,20.943c10.467-17.448,22.048-29.984,34.744-37.596
		c-14.602-6.974-25.546-18.566-32.843-34.74c-7.933,13.011-20.307,25.063-37.119,36.16
		C303.088,368.167,310.07,373.25,315.151,379.269"/>
</g>
<g>
	<path fill="#FFFFFF" d="M434.601,343.627c1.261,1.275,6.017,8.256,14.275,20.943c10.464-17.447,22.038-29.986,34.741-37.6
		c-14.602-6.974-25.548-18.56-32.845-34.74c-7.928,13.013-20.301,25.064-37.113,36.168
		C422.539,332.524,429.52,337.605,434.601,343.627z"/>
</g>
<g>
	<path fill="#FFFFFF" d="M295.001,464.745c7.606,1.422,14.745,5.47,21.411,12.136c6.666,6.663,9.998,13.563,9.998,20.699
		l0.716,127.3c0,14.275-9.528,26.418-28.561,36.412l105.355,64.189c41.783,24.473,79.955,102.74,42.854,193.744
		c-47.135,115.629,14.64,186.713,14.64,186.713s-41.639-72.914-1.219-156.209c0,0,83.937-180.541-13.772-266.146l-0.049-0.008
		l-60.713-45.125l-0.717-25.945c53.388-39.563,125.237-89.606,159.188-112.544c-27.125-48.065-48.309-87.091-63.537-117.072
		C419.203,419.053,338.297,459.034,295.001,464.745z M386.374,589.227V450.465l45.64-24.229l49.263,92.565L386.374,589.227z"/>
</g>
<g>
	<g>
		<path fill="none" d="M446.423,683.583l-0.049-0.008l-60.713-45.125l-0.717-25.945c53.388-39.563,125.237-89.606,159.188-112.544
			c-27.125-48.065-48.309-87.091-63.537-117.072c-61.392,36.164-142.298,76.145-185.594,81.856
			c7.606,1.422,14.745,5.47,21.411,12.136c6.666,6.663,9.998,13.563,9.998,20.699l0.716,127.3c0,14.275-9.528,26.418-28.561,36.412
			l105.355,64.189c26.085,15.277,50.76,51.521,56.595,98.742h32.352C496.803,774.358,488.284,720.259,446.423,683.583z
			 M386.374,450.465l45.64-24.229l49.263,92.565l-94.902,70.426V450.465z"/>
	</g>
	<g>
		<polygon fill="none" points="427.742,440.197 396.703,456.675 396.703,568.702 467.981,515.805 		"/>
	</g>
	<g>
		<path fill="none" d="M446.774,919.226c-47.135,115.629,14.64,186.713,14.64,186.713s-41.639-72.914-1.219-156.209
			c0,0,22.979-49.428,30.895-108.82h-29.346C462.367,865.069,458.055,891.556,446.774,919.226z"/>
	</g>
</g>
<path fill="#FFFFFF" d="M611.418,138.563l-12.419-9.611l-1.081-0.837h-1.366H246.821h-1.369l-1.082,0.839l-12.394,9.611l-1.805,1.4
	l0.288,2.264l12.575,99.126l0.444,3.497h3.524h18.713l4.05,28.163l0.493,3.431h3.467h295.948h3.466l0.493-3.431l4.05-28.163h18.714
	h3.524l0.444-3.497l12.574-99.126l0.288-2.267L611.418,138.563z M273.725,272.446L273.725,272.446l295.948,0v-0.001v0.002H273.725z
	 M592.731,236.084H250.666l-11.365-89.591h364.797L592.731,236.084z M608.971,141.726H234.427l10.979,86.551l-10.98-86.551
	l12.394-9.611h0.001l-12.395,9.611L608.971,141.726L608.971,141.726z"/>
<g>
	<g>
		<path fill="#FFFFFF" d="M615.949,164.993l-0.602,4.767h41.501v680.822h-156.73c-0.253,1.6-0.514,3.188-0.784,4.768h162.282
			V164.993H615.949z"/>
	</g>
	<g>
		<path fill="#FFFFFF" d="M185.041,169.759h43.342l-0.601-4.767h-47.507v690.356h270.928c0.095-1.6,0.169-3.189,0.218-4.768H185.041
			V169.759z"/>
	</g>
</g>
<g>
	<g>
		<path fill="#FFFFFF" d="M613.738,182.531l-2.104,16.684h19.412v625.009H503.216c-0.417,5.469-0.993,11.033-1.724,16.686h146.24
			V182.531H613.738z"/>
	</g>
	<g>
		<path fill="#FFFFFF" d="M210.843,824.224V199.214h21.253l-2.104-16.684h-35.836v658.378h257.291
			c-0.155-5.719-0.605-11.285-1.319-16.686H210.843z"/>
	</g>
</g>
<g>
	<path d="M-619.292-90.865c0.081,0.115,0.169,0.233,0.265,0.354c0.059-0.193,0.124-0.39,0.195-0.59
		c-0.152,0.055-0.317,0.117-0.495,0.186C-619.315-90.899-619.304-90.882-619.292-90.865 M-600.393-99.516v-0.049
		c-0.013-0.013-0.027-0.027-0.041-0.042C-600.42-99.576-600.406-99.546-600.393-99.516"/>
</g>
</svg>
