<?xml version="1.0" encoding="utf-8"?>
<!-- Generator: Adobe Illustrator 16.0.0, SVG Export Plug-In . SVG Version: 6.00 Build 0)  -->
<!DOCTYPE svg PUBLIC "-//W3C//DTD SVG 1.1//EN" "http://www.w3.org/Graphics/SVG/1.1/DTD/svg11.dtd">
<svg version="1.1" id="Layer_1" xmlns="http://www.w3.org/2000/svg" xmlns:xlink="http://www.w3.org/1999/xlink" x="0px" y="0px"
	 width="841.89px" height="1190.55px" viewBox="0 0 841.89 1190.55" enable-background="new 0 0 841.89 1190.55"
	 xml:space="preserve">
<text transform="matrix(1 0 0 1 293.7695 878.5908)" font-family="'FuturaPT-Medium'" font-size="6"> </text>
<text transform="matrix(1 0 0 1 445.4922 878.5908)" font-family="'FuturaPT-Medium'" font-size="32"> </text>
<g>
	<path d="M315.151,373.478c1.265,1.273,6.023,8.255,14.275,20.943c10.467-17.448,22.048-29.984,34.744-37.596
		c-14.602-6.974-25.546-18.566-32.843-34.74c-7.933,13.011-20.307,25.063-37.119,36.16
		C303.088,362.376,310.07,367.459,315.151,373.478"/>
	<path d="M434.601,337.836c1.261,1.275,6.017,8.256,14.275,20.943c10.464-17.447,22.038-29.986,34.741-37.6
		c-14.602-6.974-25.548-18.56-32.845-34.74c-7.928,13.013-20.301,25.064-37.113,36.168
		C422.539,326.733,429.52,331.814,434.601,337.836z"/>
	<path d="M295.001,458.954c7.606,1.422,14.745,5.47,21.411,12.136c6.666,6.663,9.998,13.563,9.998,20.699l0.716,127.3
		c0,14.275-9.528,26.418-28.561,36.412L403.92,719.69c41.783,24.473,79.955,102.74,42.854,193.744
		c-47.135,115.629,14.64,186.713,14.64,186.713s-41.639-72.914-1.219-156.209c0,0,83.937-180.541-13.772-266.146l-0.049-0.008
		l-60.713-45.125l-0.717-25.945c53.388-39.563,125.237-89.606,159.188-112.544c-27.125-48.065-48.309-87.091-63.537-117.072
		C419.203,413.262,338.297,453.243,295.001,458.954z M386.374,583.436V444.674l45.64-24.229l49.263,92.565L386.374,583.436z"/>
	<g>
		<path fill="none" d="M446.423,677.792l-0.049-0.008l-60.713-45.125l-0.717-25.945c53.388-39.563,125.237-89.606,159.188-112.544
			c-27.125-48.065-48.309-87.091-63.537-117.072c-61.392,36.164-142.298,76.145-185.594,81.856
			c7.606,1.422,14.745,5.47,21.411,12.136c6.666,6.663,9.998,13.563,9.998,20.699l0.716,127.3c0,14.275-9.528,26.418-28.561,36.412
			L403.92,719.69c26.085,15.277,50.76,51.521,56.595,98.742h32.352C496.803,768.567,488.284,714.468,446.423,677.792z
			 M386.374,444.674l45.64-24.229l49.263,92.565l-94.902,70.426V444.674z"/>
		<polygon fill="none" points="427.742,434.406 396.703,450.884 396.703,562.911 467.981,510.014 		"/>
		<path fill="none" d="M446.774,913.435c-47.135,115.629,14.64,186.713,14.64,186.713s-41.639-72.914-1.219-156.209
			c0,0,22.979-49.428,30.895-108.82h-29.346C462.367,859.278,458.055,885.765,446.774,913.435z"/>
		<path d="M460.515,818.433c0.67,5.42,1.083,10.99,1.229,16.686h29.346c0.731-5.488,1.332-11.061,1.776-16.686H460.515z"/>
		<path d="M488.849,849.558c0.278-1.58,0.548-3.17,0.808-4.768h-27.934c-0.045,1.58-0.113,3.17-0.202,4.768H488.849z"/>
	</g>
	<polygon points="569.673,266.654 273.725,266.654 267.739,235.032 575.658,235.032 	"/>
	<path d="M596.396,235.061H247.002l-12.575-99.126h374.543L596.396,235.061z M250.666,230.293h342.065l11.366-89.591H239.301
		L250.666,230.293z"/>
	<polygon points="596.552,126.324 246.822,126.324 234.427,135.935 608.971,135.935 	"/>
	<path d="M596.552,126.324l12.419,9.611l-12.575,99.126h-22.18l-4.543,31.594H273.725l-4.544-31.594h-22.179l-12.575-99.126
		l12.394-9.611H596.552z M597.918,122.324h-1.366H246.821h-1.369l-1.082,0.839l-12.394,9.611l-1.805,1.4l0.288,2.264l12.575,99.126
		l0.444,3.497h3.524h18.713l4.05,28.163l0.493,3.431h3.467h295.948h3.466l0.493-3.431l4.05-28.163h18.714h3.524l0.444-3.497
		l12.574-99.126l0.288-2.267l-1.809-1.399l-12.419-9.611L597.918,122.324z"/>
	<g>
		<path d="M615.949,159.202l-0.602,4.767h41.501V844.79h-156.73c-0.253,1.6-0.514,3.188-0.784,4.768h162.282V159.202H615.949z"/>
		<path d="M185.041,163.968h43.342l-0.601-4.767h-47.507v690.356h270.928c0.095-1.6,0.169-3.189,0.218-4.768H185.041V163.968z"/>
	</g>
	<g>
		<path d="M613.738,176.74l-2.104,16.684h19.412v625.009H503.216c-0.417,5.469-0.993,11.033-1.724,16.686h146.24V176.74H613.738z"/>
		<path d="M210.843,818.433V193.423h21.253l-2.104-16.684h-35.836v658.378h257.291c-0.155-5.719-0.605-11.285-1.319-16.686H210.843z
			"/>
	</g>
	<path d="M388.708,120.833c0.081,0.115,0.169,0.233,0.265,0.354c0.059-0.193,0.124-0.39,0.195-0.59
		c-0.152,0.055-0.317,0.117-0.495,0.186C388.685,120.799,388.696,120.816,388.708,120.833 M407.607,112.182v-0.049
		c-0.013-0.013-0.027-0.027-0.041-0.042C407.58,112.122,407.594,112.152,407.607,112.182"/>
</g>
</svg>
