<?xml version="1.0" encoding="utf-8"?>
<!-- Generator: Adobe Illustrator 22.0.1, SVG Export Plug-In . SVG Version: 6.00 Build 0)  -->
<svg version="1.1" id="Layer_1" xmlns="http://www.w3.org/2000/svg" xmlns:xlink="http://www.w3.org/1999/xlink" x="0px" y="0px"
	 viewBox="0 0 595.3 841.9" style="enable-background:new 0 0 595.3 841.9;" xml:space="preserve">
<style type="text/css">
	.st0{fill:#FFFFFF;}
</style>
<g>
	<path class="st0" d="M236.9,184.8c0.7,0.7,3.4,4.6,8,11.8c5.9-9.8,12.4-16.9,19.6-21.2c-8.2-3.9-14.4-10.5-18.5-19.6
		c-4.5,7.3-11.4,14.1-20.9,20.4C230.1,178.5,234.1,181.4,236.9,184.8z"/>
	<path class="st0" d="M299.9,164.7c0.7,0.7,3.4,4.6,8,11.8c5.9-9.8,12.4-16.9,19.6-21.2c-8.2-3.9-14.4-10.5-18.5-19.6
		c-4.5,7.3-11.4,14.1-20.9,20.4C293.1,158.4,297.1,161.3,299.9,164.7z"/>
	<path class="st0" d="M306.6,356.2L306.6,356.2l-34.2-25.4l-0.4-14.6c30.1-22.3,70.5-50.5,89.7-63.4c-15.3-27.1-27.2-49.1-35.8-65.9
		c-34.6,20.4-80.2,42.9-104.5,46.1c4.3,0.8,8.3,3.1,12.1,6.8c3.8,3.8,5.6,7.6,5.6,11.7l0.4,71.7c0,8-5.4,14.9-16.1,20.5l59.3,36.2
		c23.5,13.8,45,57.9,24.1,109.1c-26.6,65.1,8.2,105.2,8.2,105.2s-23.5-41.1-0.7-88C314.3,506.1,361.6,404.4,306.6,356.2z
		 M272.8,224.9l25.7-13.6l27.8,52.1L272.8,303V224.9z"/>
</g>
<g>
	<g>
		<path class="st0" d="M299,789.5L77,187L299,50.6l219.3,135.9l-0.9,2.5L299,789.5z M85.1,189.8L299,770.2l211.3-580.9L299,58.4
			L85.1,189.8z"/>
	</g>
	<g>
		<path class="st0" d="M298.9,748.4L95.1,193.9L298.8,68.8l201.4,124.6L298.9,748.4z M122.1,203.3l176.6,480.6l174.5-481.1
			l-174.5-108L122.1,203.3z"/>
	</g>
</g>
</svg>
