<?xml version="1.0" encoding="utf-8"?>
<!-- Generator: Adobe Illustrator 16.0.0, SVG Export Plug-In . SVG Version: 6.00 Build 0)  -->
<!DOCTYPE svg PUBLIC "-//W3C//DTD SVG 1.1//EN" "http://www.w3.org/Graphics/SVG/1.1/DTD/svg11.dtd">
<svg version="1.1" id="Layer_1" xmlns="http://www.w3.org/2000/svg" xmlns:xlink="http://www.w3.org/1999/xlink" x="0px" y="0px"
	 width="595.28px" height="841.89px" viewBox="0 0 595.28 841.89" enable-background="new 0 0 595.28 841.89" xml:space="preserve">
<g>
	<path d="M236.923,184.767c0.712,0.717,3.393,4.65,8.041,11.797c5.896-9.829,12.419-16.89,19.571-21.178
		c-8.225-3.928-14.39-10.458-18.5-19.569c-4.469,7.329-11.439,14.118-20.909,20.369
		C230.128,178.513,234.062,181.376,236.923,184.767z"/>
	<path d="M299.921,164.689c0.71,0.718,3.39,4.65,8.041,11.797c5.895-9.828,12.414-16.891,19.57-21.18
		c-8.226-3.929-14.392-10.455-18.502-19.569c-4.466,7.331-11.436,14.119-20.905,20.374
		C293.126,158.435,297.059,161.297,299.921,164.689z"/>
	<path d="M306.58,356.185l-0.027-0.004l-34.199-25.418l-0.404-14.615c30.073-22.285,70.546-50.474,89.67-63.395
		c-15.279-27.075-27.212-49.058-35.79-65.946c-34.582,20.371-80.156,42.892-104.544,46.109c4.285,0.801,8.306,3.081,12.061,6.836
		c3.754,3.753,5.631,7.64,5.631,11.66l0.403,71.708c0,8.042-5.367,14.881-16.088,20.511l59.346,36.158
		c23.536,13.785,45.038,57.874,24.14,109.136c-26.552,65.133,8.246,105.175,8.246,105.175s-23.455-41.072-0.687-87.992
		C314.338,506.105,361.619,404.407,306.58,356.185z M272.755,224.871l25.708-13.648l27.75,52.142l-53.458,39.671V224.871z"/>
</g>
<g>
	<g>
		<path d="M299.029,789.47L77.004,187.041L299.016,50.57l219.326,135.901l-0.92,2.536L299.029,789.47z M85.115,189.848
			l213.874,580.311L510.26,189.272L299.003,58.372L85.115,189.848z"/>
	</g>
	<g>
		<path d="M298.873,748.401L95.096,193.892L298.829,68.766l201.393,124.637L298.873,748.401z M122.118,203.266l176.622,480.613
			l174.547-481.122L298.784,94.763L122.118,203.266z"/>
	</g>
</g>
</svg>
