<?xml version="1.0" encoding="utf-8"?>
<!-- Generator: Adobe Illustrator 22.0.1, SVG Export Plug-In . SVG Version: 6.00 Build 0)  -->
<svg version="1.1" id="Capa_1" xmlns="http://www.w3.org/2000/svg" xmlns:xlink="http://www.w3.org/1999/xlink" x="0px" y="0px"
	 viewBox="0 0 504.7 510" style="enable-background:new 0 0 504.7 510;" xml:space="preserve">
<style type="text/css">
	.st0{fill:none;stroke:#FFFFFF;stroke-width:12;stroke-miterlimit:10;}
</style>
<g>
	<g>
		<path class="st0" d="M253.3,12.8C119,12.8,10.1,121.7,10.1,256S119,499.2,253.3,499.2S496.5,390.3,496.5,256
			S387.6,12.8,253.3,12.8z M374.3,201.4l0.2,7.8c0,79.2-60.2,170.4-170.4,170.4c-33.8,0-65.3-9.9-91.8-26.9
			c4.7,0.5,9.5,0.9,14.3,0.9c28.1,0,53.9-9.6,74.4-25.6c-26.2-0.5-48.3-17.8-55.9-41.6c3.7,0.7,7.4,1,11.3,1
			c5.5,0,10.8-0.7,15.8-2.1c-27.4-5.5-48-29.7-48-58.7v-0.8c8.1,4.5,17.3,7.2,27.1,7.5c-16.1-10.7-26.6-29.1-26.6-49.8
			c0-11,2.9-21.2,8.1-30.1c29.5,36.2,73.7,60.1,123.4,62.6c-1-4.4-1.6-9-1.6-13.6c0-33,26.8-59.9,59.9-59.9
			c17.2,0,32.8,7.3,43.7,18.9c13.6-2.7,26.4-7.7,38-14.5c-4.5,14-14,25.7-26.3,33.1c12.1-1.4,23.7-4.7,34.4-9.4
			C396.2,182.5,386,193,374.3,201.4z"/>
	</g>
</g>
</svg>
